<?xml version="1.0" encoding="UTF-8"?>
<svg id="Layer_6" data-name="Layer 6" xmlns="http://www.w3.org/2000/svg" viewBox="0 0 1090.33 388.67">
  <defs>
    <style>
      .cls-1 {
        fill: #14bbea;
      }

      .cls-2 {
        fill: #f9b217;
      }
    </style>
  </defs>
  <path class="cls-1" d="M936.14,116.67h0c-2.32,0-4.21-1.88-4.21-4.21v-41.79c0-2.66-2.44-4.66-5.05-4.12-16.33,3.36-51.61,10.03-101.53,16.35-64.63,8.18-167.8,17.42-292.23,15.04-198.26-3.81-333.12-25.25-369.69-31.71-2.58-.46-4.94,1.53-4.94,4.14v42.1c0,2.32-1.88,4.21-4.21,4.21h0c-2.32,0-4.21-1.88-4.21-4.21v-52.21c0-2.66,2.43-4.65,5.04-4.13h0c1.44.29,146.17,28.93,378.17,33.39,123.87,2.38,226.53-6.82,290.85-14.95,69.7-8.81,110.63-18.31,111.04-18.41h0c2.64-.62,5.17,1.38,5.17,4.1v52.21c0,2.32-1.88,4.21-4.21,4.21ZM940.35,273.24c0-2.32-1.88-4.21-4.21-4.21h0c-2.32,0-4.21,1.88-4.21,4.21v44.99c0,2.63-2.39,4.62-4.98,4.14-41.51-7.7-206.3-35.59-393.83-31.63-201.84,4.27-333.64,25.28-369.67,31.69-2.58.46-4.94-1.52-4.94-4.14v-45.05c0-2.32-1.88-4.21-4.21-4.21h0c-2.32,0-4.21,1.88-4.21,4.21v55.18c0,2.66,2.44,4.66,5.05,4.12h0c1.38-.28,141.29-28.37,378.16-33.39,215.11-4.55,400.15,33.01,401.99,33.39h0c2.61.54,5.06-1.46,5.06-4.12v-55.18ZM1018.7,102.53h0c2.32-.01,4.2-1.91,4.18-4.24l-.6-94.11c-.02-2.77-2.65-4.76-5.32-4.03h0c-1.96.54-199.42,53.77-486.17,47.31C250.15,41.15,75.07.52,73.33.11h0c-2.65-.63-5.19,1.4-5.17,4.12l.6,94.11c.01,2.32,1.91,4.2,4.24,4.18h0c2.32-.01,4.2-1.91,4.18-4.24l-.53-83.59c-.02-2.68,2.44-4.7,5.06-4.15,41.51,8.69,205.8,39.86,448.9,45.33,16.46.37,32.58.55,48.43.54,225.67,0,388.12-35.45,429.71-45.52,2.64-.64,5.17,1.35,5.19,4.06l.53,83.37c.01,2.32,1.91,4.2,4.24,4.18ZM1022.28,286.94c0-2.32-1.88-4.21-4.21-4.21h0c-2.32,0-4.21,1.88-4.21,4.21v86.99c0,2.69-2.48,4.69-5.1,4.11-47.01-10.31-248.5-50.95-478.17-45.25-247.67,6.15-408.15,36.71-448.95,45.32-2.62.55-5.07-1.45-5.07-4.12v-87.05c0-2.32-1.88-4.21-4.21-4.21h0c-2.32,0-4.21,1.88-4.21,4.21v97.53c0,2.72,2.54,4.73,5.19,4.09h0c1.68-.4,170.92-40.24,457.46-47.35,260.23-6.45,484.06,46.81,486.29,47.35h0c2.65.64,5.2-1.37,5.2-4.09v-97.53ZM749.37,245.08c0-2.32-1.88-4.21-4.21-4.21h0c-2.32,0-4.21,1.88-4.21,4.21v7.7c0,2.62-2.36,4.6-4.94,4.14-27.29-4.83-107.06-17.24-197.02-15.34-95.84,2.03-160.89,11.43-184.6,15.41-2.57.43-4.9-1.55-4.9-4.15v-7.77c0-2.32-1.88-4.21-4.21-4.21h0c-2.32,0-4.21,1.88-4.21,4.21v17.84c0,2.66,2.44,4.66,5.05,4.12h0c.71-.14,72.12-14.48,193.04-17.04,109.75-2.34,204.2,16.84,205.14,17.03h0c2.61.54,5.06-1.46,5.06-4.12v-17.84ZM688.76,139.38c21.39-2.71,37.56-5.55,47.19-7.41,2.6-.5,5,1.49,5,4.13v5.79c0,2.32,1.88,4.21,4.21,4.21h0c2.32,0,4.21-1.88,4.21-4.21v-16.14c0-2.71-2.53-4.72-5.17-4.1h0c-.21.05-21.09,4.89-56.66,9.39-32.81,4.15-85.2,8.83-148.38,7.62-118.44-2.27-192.31-16.89-193.05-17.04h0c-2.61-.52-5.04,1.47-5.04,4.13v16.14c0,2.32,1.88,4.21,4.21,4.21h0c2.32,0,4.21-1.88,4.21-4.21v-6.08c0-2.6,2.33-4.58,4.9-4.15,24.04,4.02,90.36,13.62,184.61,15.43,6.97.13,13.79.2,20.49.2,54.59,0,99.77-4.17,129.27-7.9Z"/>
  <path class="cls-2" d="M93.86,232.33c2.08,2.03,4.17,4.04,6.25,6.03-3.2,2.82-7.43,5.56-12.71,8.25-2.22.95-4.51,1.92-6.87,2.9-1.25.5-2.57.99-3.96,1.45-1.39.46-2.78.84-4.17,1.13-9.03,2.42-17.56,3.88-25.61,4.22-8.05.34-16.02-1.65-23.93-6.32-6.65-4.01-11.75-9.49-15.28-16.4-3.53-6.9-5.86-15.12-6.96-24.55-.14-1.66-.28-3.33-.42-5C.07,202.38,0,200.71,0,199.04c0-3.48.07-6.06.21-7.73.42-7.24,1.46-14.08,3.12-20.45,1.66-6.37,3.67-11.53,6.03-15.47,4.85-8.02,11.19-14.63,19.03-19.8,7.83-5.17,17.58-7.52,29.24-7.37,11.66.15,24.78,4.13,39.36,11.09-1.67,2.55-3.33,5.12-5,7.72-1.18,1.88-2.36,3.78-3.54,5.69-1.25,1.96-2.5,3.94-3.75,5.93-1.67,2.68-3.33,5.38-5,8.11-1.32,2.15-2.64,4.31-3.96,6.49-2.08-.55-4.1-.92-6.04-1.11-1.95-.19-3.82-.19-5.62,0-1.11.09-2.19.2-3.23.35-1.04.15-2.05.4-3.02.74-.97.22-1.87.53-2.71.94-.83.41-1.67.86-2.5,1.34-4.58,2.64-7.91,6.65-9.99,12.02-1.53,3.84-2.01,8.33-1.46,13.39.55,5.07,1.94,9.29,4.16,12.63,1.52,2.23,3.81,4.08,6.87,5.54,3.05,1.46,6.83,2.1,11.35,1.95,4.51-.15,9.47-1.56,14.89-4.12.97.97,1.94,1.93,2.92,2.88,1.18,1.18,2.36,2.35,3.54,3.52,1.32,1.39,2.64,2.77,3.96,4.14,1.67,1.64,3.33,3.26,5,4.86ZM131.17,138.45c-2.02-.2-4.03-.39-6.05-.59-2.64-.26-5.28-.52-7.92-.79-2.15-.22-4.31-.44-6.46-.66-1.81-.18-3.61-.37-5.42-.56-1.39-.14-2.78-.29-4.17-.43.63,20.78,1.25,41.49,1.88,62.12.14,1.71.21,3.42.21,5.13.14,1.6.21,3.24.21,4.95.42,13.38.83,26.72,1.25,40.03,1.94-.22,3.89-.43,5.84-.64,2.01-.22,4.03-.44,6.04-.66,2.78-.3,5.56-.6,8.34-.89,2.22-.24,4.45-.47,6.67-.7,2.5-.26,5-.52,7.51-.77.28-5.25.56-10.48.83-15.71.14-1.28.21-2.56.21-3.84,0-1.17.03-2.05.1-2.64.07-.59.1-1.52.1-2.79.9-19.91,1.81-39.72,2.71-59.44.07-1.79.14-3.58.21-5.38.07-1.69.14-3.37.21-5.05.14-3.16.28-6.31.42-9.46-1.88-.18-3.75-.36-5.63-.54-2.36-.23-4.73-.45-7.09-.68ZM250.57,217.77c0-.39-.07-1.02-.21-1.89-.14-1.13-.28-2.21-.42-3.25-1.25-12.48-2.51-25.03-3.76-37.66-.14-1.41-.24-2.47-.31-3.17-.07-.71-.18-1.76-.31-3.17-.14-1.15-.21-1.99-.21-2.51,0-.53-.07-1.37-.21-2.52-.49-5.3-.97-10.61-1.46-15.94-2.23-.2-4.46-.41-6.69-.61-1.81-.13-3.62-.27-5.43-.4-1.81-.13-3.62-.27-5.43-.41-1.74-.13-3.48-.26-5.22-.4-2.65-.16-5.29-.32-7.94-.48-.97,10.71-1.95,21.48-2.92,32.3-.42,0-.84-.02-1.25-.03-3.76-10.95-7.52-22.12-11.28-33.51-2.92-.24-5.85-.48-8.77-.73-2.51-.21-5.01-.42-7.51-.64-2.23-.19-4.45-.39-6.68-.58-2.09-.18-4.17-.37-6.26-.55-4.66-.42-9.32-.84-13.98-1.27-.56,12.47-1.11,24.98-1.67,37.52,0,1.35-.04,2.36-.1,3.03-.07.68-.1,1.69-.1,3.04,0,1.45-.04,2.55-.1,3.27-.07.73-.1,1.87-.1,3.43-.7,17.4-1.39,34.87-2.09,52.41,2.09-.21,4.17-.41,6.26-.62,2.43-.24,4.87-.47,7.3-.71,1.67-.16,3.34-.32,5.01-.48,2.64-.25,5.29-.5,7.93-.74,3.48-.32,6.96-.64,10.44-.96.97-12.07,1.95-24.07,2.92-36.02.42.04.84.08,1.25.11,5.15,11.71,10.3,23.1,15.45,34.18,3.06-.26,6.13-.52,9.19-.77,4.39-.36,8.77-.72,13.16-1.07,2.72-.22,5.43-.43,8.15-.64,2.16-.17,4.32-.33,6.48-.5,2.79-.21,5.57-.42,8.36-.62-.42-4.88-.84-9.78-1.25-14.68-.14-.78-.21-1.36-.21-1.76ZM285.58,151.04c-.91-.05-2.34-.1-4.29-.14-2.09-.13-4.25-.22-6.48-.27-5.64-.18-11.29-.38-16.93-.57-.77,18.17-1.53,36.4-2.3,54.71-.14,1.22-.21,2.13-.21,2.73,0,.61-.07,1.52-.21,2.73v.13c-.14,1.04-.21,1.8-.21,2.28,0,.48-.07,1.24-.21,2.28-.21,6.24-.42,12.49-.63,18.75,28-2.03,56.02-3.77,84.06-5.22v-20.61c-3.35.08-6.69.16-10.04.25-2.23.06-4.53.11-6.9.18-2.51.07-5.02.13-7.53.2-4.11.11-8.23.22-12.34.34v-11.22c6.62-.16,13.24-.31,19.87-.45v-12.54c-12.9-.1-25.79-.2-38.69-.31v-11.3c18.54.12,37.08.21,55.63.28v-20.61c-16.18-.42-32.35-.91-48.52-1.47-1.81-.03-3.17-.07-4.08-.12ZM683.42,215.97c3.14,3.36,6.28,6.75,9.42,10.17-2.51-.09-5.02-.18-7.54-.27-2.58-.09-5.16-.18-7.75-.26-2.3-.08-4.61-.15-6.91-.22-2.79-.09-5.58-.17-8.37-.26-7.33-.22-14.66-.41-21.98-.59-3-5.31-6-10.58-9-15.83-4.68,5.15-9.35,10.26-14.03,15.34-2.79-.05-5.58-.1-8.38-.14-2.37-.04-4.75-.07-7.12-.11-2.93-.04-5.86-.08-8.8-.12-.86-.01-1.72-.02-2.58-.03.02.07.05.13.07.2-3.7-.04-7.4-.08-11.1-.11-2.72-.02-5.44-.04-8.17-.06-3.14-.02-6.28-.04-9.42-.05-2.72-.01-5.45-.02-8.17-.03-4.26,0-8.52-.01-12.78,0-.84-3.55-1.68-7.11-2.51-10.66-5.03,0-10.05.02-15.08.04-.77,3.56-1.54,7.13-2.3,10.69-3.7.02-7.4.05-11.1.08-3.98.04-7.96.08-11.94.12-2.58.03-5.17.06-7.75.1-3.84.05-7.68.11-11.52.18-2.16.04-4.33.07-6.49.11.01-.03.03-.07.04-.1-2.04.04-4.08.07-6.11.12-1.95.04-3.91.08-5.86.12-2.37.05-4.75.1-7.12.16-2.16.05-4.33.1-6.49.16-3.7.09-7.4.19-11.1.29.7-7.96,1.4-15.91,2.09-23.85-.49,0-.98,0-1.47.01-6.56,8-13.12,16.12-19.68,24.4-2.3.07-4.61.15-6.91.23-1.47.05-2.93.1-4.4.15-1.4.05-2.79.1-4.19.15-2.93-3.9-5.86-7.83-8.79-11.8-.56-.99-1.05-1.69-1.47-2.11-.28-.42-.49-.72-.63-.9-.14-.17-.35-.48-.63-.9-2.65-3.67-5.3-7.38-7.95-11.11-1.05.01-2.09.02-3.14.03.63,9.22,1.26,18.42,1.88,27.6-3.98.17-7.95.34-11.93.51-2.44.11-4.88.22-7.32.33-1.74.08-3.49.16-5.23.25-2.3.11-4.6.22-6.9.34-1.46.07-2.93.15-4.39.22.42-3.39.84-6.78,1.26-10.16.14-.99.21-1.71.21-2.16s.07-1.14.21-2.05c.14-1.21.24-2.1.31-2.67.07-.57.17-1.42.31-2.56,2.02-17.72,4.04-35.29,6.07-52.74,1.26.05,2.51.11,3.77.16,2.3.06,4.6.12,6.91.17,2.65.07,5.3.14,7.95.2,2.44.09,4.88.19,7.32.28,3.49.02,6.98.04,10.46.05,6.49,10.39,12.98,20.55,19.47,30.52,1.12,0,2.23,0,3.35,0,7.82-10.3,15.63-20.37,23.45-30.28,3.49.09,6.98.17,10.47.25,2.65.06,5.3.12,7.96.18,1.88.04,3.77.08,5.65.12,1.54.03,3.07.06,4.61.09,1.26.02,2.51.05,3.77.07.56,5.73,1.12,11.45,1.67,17.17,0,.67.03,1.16.1,1.46.07.3.1.76.1,1.36.14.81.21,1.4.21,1.77,0,.37.07.96.21,1.76,1.2,12.85,2.4,25.67,3.6,38.47,5.64-13.91,11.28-27.7,16.92-41.39.28-.4.55-1,.84-1.79.14-.33.28-.66.42-1,.28-.4.56-.99.84-1.79.14-.33.28-.66.42-.99,2.02-4.91,4.05-9.8,6.07-14.69,3.49.04,6.98.07,10.47.1,2.86.02,5.72.04,8.59.06,3.14.02,6.28.04,9.42.05,2.44.01,4.89.02,7.33.02,4.05,0,8.1.01,12.15.01,2.3,0,4.61,0,6.91,0,4.12,0,8.24-.02,12.36-.04,5.65,15.4,11.31,30.82,16.96,46.33.28.4.42.76.42,1.09.14.33.28.7.42,1.09.28.8.56,1.59.84,2.39.53,1.45,1.06,2.91,1.59,4.36,3.1-2.72,6.2-5.44,9.3-8.18.84-.72,1.43-1.25,1.78-1.58.35-.33.94-.86,1.78-1.59,1.26-1.12,2.51-2.22,3.77-3.28,3.14-2.79,6.28-5.58,9.42-8.39-12.01-10.48-24.01-20.77-36.02-31.03,4.05-.03,8.1-.06,12.15-.1,2.16-.02,4.33-.04,6.49-.07,2.58-.03,5.17-.06,7.75-.09,2.65-.03,5.3-.07,7.96-.11,6.98-.17,13.96-.36,20.94-.56,2.79,4.72,5.58,9.45,8.38,14.22,1.95-1.59,3.91-3.18,5.86-4.78.56-.49,1.01-.87,1.36-1.15.35-.28.8-.66,1.36-1.15.98-.77,1.88-1.51,2.72-2.21,2.65-2.32,5.3-4.65,7.96-7,3.07-.08,6.14-.17,9.21-.26,2.65-.08,5.3-.16,7.95-.24,2.44-.08,4.88-.15,7.33-.23,2.44-.08,4.88-.16,7.33-.25,3-.1,6-.21,9-.32-13.74,12.31-27.49,24.03-41.24,35.37,6.42,6.56,12.84,13.23,19.26,20.02.84.79,1.6,1.61,2.3,2.47.07.07.14.14.21.22.56.51.94.9,1.15,1.19.21.29.59.68,1.15,1.19ZM545.85,195.28c-2.16-6.09-4.33-12.17-6.49-18.26-5.65,0-11.31-.01-16.96-.02-2.23,6.09-4.47,12.19-6.7,18.3,10.05-.01,20.1-.02,30.16-.02ZM796.18,206.92c-.42-.42-.98-1.04-1.67-1.87-.07-.04-.14-.08-.21-.13-.84-.91-1.43-1.57-1.78-1.98-.35-.41-.94-1.07-1.78-1.97-3.42-3.65-6.83-7.24-10.25-10.77,11.92-12.59,23.84-25.83,35.75-39.88-2.58.16-5.16.32-7.73.48-1.67.1-3.35.2-5.02.3-2.79.17-5.57.33-8.36.49-2.37.14-4.74.27-7.11.41-1.81.1-3.63.2-5.44.3-5.09,5.26-10.18,10.4-15.27,15.43-5.02-4.52-10.04-8.95-15.06-13.29-5.3.29-10.6.57-15.9.84-2.44.11-4.88.21-7.32.31-2.79.12-5.58.23-8.37.34-2.3.09-4.6.18-6.91.27-2.37.09-4.74.18-7.12.27,5.58,5.75,11.16,11.61,16.74,17.57.7.72,1.18,1.25,1.46,1.58.28.33.76.85,1.47,1.58.7.73,1.18,1.26,1.46,1.59.28.33.77.86,1.46,1.59,3.21,3.56,6.42,7.16,9.62,10.8-7.18,6.4-14.37,12.63-21.55,18.72-1.68,1.42-3.35,2.87-5.02,4.35-.84.7-1.47,1.23-1.88,1.58-.42.35-1.05.91-1.88,1.68-3.35,2.79-6.7,5.55-10.05,8.29,2.3.09,4.6.18,6.91.27,3,.12,6,.24,9,.37,2.51.11,5.02.21,7.53.32,2.65.12,5.3.23,7.95.36,4.67.21,9.35.44,14.02.67,3-4.99,6-10.03,9-15.14,4.81,5.34,9.62,10.79,14.43,16.36,5.16.28,10.32.58,15.48.88,2.93.17,5.85.35,8.78.53,3.21.2,6.41.4,9.62.6,3.14.2,6.27.4,9.41.61,2.72.18,5.43.36,8.15.54-6.97-8.05-13.94-15.84-20.91-23.38-.7-.83-1.25-1.46-1.67-1.88ZM854.71,147.33c-2.02.15-4.04.29-6.06.44-2.65.19-5.29.37-7.94.56-2.16.15-4.32.3-6.48.44-1.81.12-3.62.24-5.43.36-1.39.09-2.79.18-4.18.28.63,15.35,1.25,30.75,1.88,46.19.14,1.28.21,2.56.21,3.84.14,1.2.21,2.44.21,3.72.42,10.04.84,20.1,1.25,30.18,1.95.14,3.9.28,5.85.42,2.02.15,4.04.29,6.06.44,2.79.21,5.57.42,8.36.63,2.23.17,4.46.34,6.69.51,2.51.2,5.01.39,7.52.59.28-4.42.56-8.84.84-13.28.14-1.08.21-2.17.21-3.26,0-1,.03-1.75.1-2.24.07-.5.1-1.29.1-2.38.91-16.95,1.81-33.97,2.72-51.08.07-1.55.14-3.11.21-4.67.07-1.46.14-2.93.21-4.4.14-2.75.28-5.5.42-8.25-1.88.14-3.76.28-5.64.42-2.37.18-4.74.35-7.1.52ZM974.08,225.46c0-.5-.07-1.31-.21-2.43-.14-1.45-.28-2.85-.42-4.19-1.25-16.01-2.5-31.9-3.75-47.68-.14-1.76-.24-3.08-.31-3.96-.07-.88-.18-2.19-.31-3.95-.14-1.42-.21-2.47-.21-3.13,0-.66-.07-1.7-.21-3.12-.49-6.57-.97-13.13-1.46-19.66-2.22.17-4.45.33-6.67.5-1.81.18-3.61.36-5.42.53-1.81.18-3.61.35-5.42.52-1.74.17-3.48.33-5.21.5-2.64.3-5.28.6-7.93.9-.97,12.1-1.95,24.14-2.92,36.12-.42.01-.83.02-1.25.03-3.76-11.83-7.51-23.41-11.27-34.75-2.92.26-5.84.52-8.76.77-2.5.22-5.01.43-7.51.65-2.23.19-4.45.38-6.68.56-2.09.17-4.18.35-6.26.52-4.66.38-9.33.76-13.99,1.12-.56,11.31-1.11,22.58-1.67,33.82,0,1.21-.04,2.11-.1,2.72-.07.61-.1,1.51-.1,2.72,0,1.3-.04,2.27-.1,2.92-.07.65-.11,1.67-.1,3.06-.7,15.53-1.39,31.01-2.09,46.43,2.09.17,4.18.35,6.27.52,2.44.21,4.87.41,7.31.62,1.67.14,3.34.29,5.01.43,2.65.23,5.29.47,7.93.7,3.48.31,6.96.63,10.44.95.97-12.05,1.95-24.17,2.92-36.36.42.06.83.12,1.25.18,5.15,12.32,10.3,24.99,15.44,38.03,3.06.3,6.12.6,9.18.9,4.38.44,8.76.88,13.14,1.33,2.71.28,5.42.56,8.13.84,2.15.23,4.31.45,6.46.68,2.78.3,5.56.59,8.34.9-.42-6.34-.83-12.68-1.25-18.99-.14-1.01-.21-1.77-.21-2.27ZM1089.82,173.36c-17.18-.14-34.38-.25-51.58-.31-.14,1.83-.28,3.66-.42,5.48-.07,2.77-.14,5.53-.21,8.3-.07,1.76-.14,3.52-.21,5.28,4.65.52,9.3,1.06,13.94,1.61.28,5.3-.94,9.74-3.64,13.24-2.71,3.5-7.11,5.08-13.22,4.81-3.06-.13-5.83-1.68-8.33-4.59-.7-.76-1.35-1.76-1.98-3.01-.62-1.24-1.22-2.48-1.77-3.71-.42-1.23-.9-2.46-1.46-3.68-1.39-5.01-2.08-9.48-2.08-13.48,0-7.15,1.59-13.12,4.79-18.04,3.19-4.92,7.39-8.16,12.6-9.63,5.2-1.47,10.65-.81,16.34,2.2,1.18-1.24,2.36-2.48,3.54-3.74,1.46-1.53,2.91-3.08,4.37-4.64,1.6-1.64,3.19-3.29,4.78-4.95,1.73-1.88,3.47-3.77,5.2-5.69,1.52-1.69,3.05-3.4,4.57-5.12-7.07-6.53-16.22-9.91-27.46-10.44-11.24-.53-23.66,3.25-37.27,10.46-15.69,8.29-26.46,19.87-32.3,34.98-.42,1.14-.83,2.3-1.25,3.49-.42,1.19-.76,2.34-1.04,3.47-.28,1.24-.76,3.53-1.46,6.88-.7,4.24-.97,8.12-.83,11.67.14,3.56.34,6.23.63,8.01,1.67,9.38,6.53,19.36,14.59,30.54,8.05,11.14,22.71,18.19,43.95,20.6,11.52,1.3,21.33.26,29.44-3.48,8.11-3.73,14.52-9.62,19.24-17.72.69-1.31,1.38-2.69,2.08-4.16.69-1.46,1.32-2.93,1.87-4.41.55-1.34,1.04-2.69,1.45-4.05.42-1.36.76-2.72,1.04-4.1,1.25-5.06,2.04-11.85,2.39-20.34.34-8.49.24-15.74-.31-21.71Z"/>
</svg>