<?xml version="1.0" encoding="utf-8"?>
<!-- Generator: Adobe Illustrator 19.0.0, SVG Export Plug-In . SVG Version: 6.00 Build 0)  -->
<svg version="1.1" id="Layer_1" xmlns="http://www.w3.org/2000/svg" xmlns:xlink="http://www.w3.org/1999/xlink" x="0px" y="0px"
	 viewBox="0 0 63.216 136" enable-background="new 0 0 63.216 136" xml:space="preserve">
<g>
	<circle fill="none" stroke="#FFFFFF" stroke-width="4" stroke-miterlimit="10" cx="31.602" cy="26" r="10"/>
	<circle fill="#FFFFFF" cx="29.352" cy="23.75" r="2"/>
	<circle fill="none" stroke="#FFFFFF" stroke-width="11" stroke-miterlimit="10" cx="31.602" cy="26" r="20.5"/>
	<path fill="none" stroke="#FFFFFF" stroke-width="3" stroke-linecap="square" stroke-miterlimit="10" d="M1.613,127.583
		c0,0-3.614,6.917,30,6.917s29.989-6.917,29.989-6.917l-30-73.292L1.613,127.583z"/>
	<path fill="#FFFFFF" d="M41.348,77.759c0,0,1.177,2.246-9.738,2.246s-9.742-2.246-9.742-2.246l9.734-23.468L41.348,77.759z"/>
	<path fill="#FFFFFF" d="M55.013,111.279c0,0,2.829,5.397-23.401,5.397s-23.41-5.397-23.41-5.397l6.337-15.21
		c0,0-2.056,3.936,17.071,3.936s17.065-3.936,17.065-3.936L55.013,111.279z"/>
</g>
</svg>
